<?xml version="1.0" standalone="no"?>
<!DOCTYPE svg PUBLIC "-//W3C//DTD SVG 20010904//EN"
 "http://www.w3.org/TR/2001/REC-SVG-20010904/DTD/svg10.dtd">
<svg version="1.0" xmlns="http://www.w3.org/2000/svg"
 width="545.000000pt" height="545.000000pt" viewBox="0 0 545.000000 545.000000"
 preserveAspectRatio="xMidYMid meet">
<metadata>
Created by potrace 1.11, written by Peter Selinger 2001-2013
</metadata>
<g transform="translate(0.000000,545.000000) scale(0.100000,-0.100000)"
fill="#000000" stroke="none">
<path d="M2519 5446 c-2 -2 -40 -6 -84 -10 -44 -4 -89 -9 -100 -11 -11 -2 -38
-6 -60 -9 -22 -3 -50 -7 -61 -10 -12 -2 -37 -7 -56 -10 -19 -3 -61 -12 -94
-21 -32 -9 -67 -18 -77 -20 -114 -25 -339 -111 -498 -190 -138 -68 -346 -197
-438 -271 -109 -87 -176 -147 -281 -254 -151 -154 -152 -156 -257 -300 -46
-63 -88 -120 -93 -127 -6 -7 -10 -15 -10 -18 0 -3 -11 -22 -24 -43 -14 -20
-27 -53 -29 -72 -4 -39 24 -116 51 -137 64 -51 154 -53 211 -4 11 10 44 54 72
97 100 153 185 257 324 396 273 274 606 475 970 587 120 37 250 67 325 76 30
4 58 9 61 11 15 9 181 18 334 18 239 0 325 -10 597 -69 128 -28 395 -133 548
-217 72 -39 229 -136 240 -148 3 -3 30 -24 60 -46 338 -254 625 -624 774 -999
16 -38 32 -79 37 -90 27 -63 87 -272 95 -329 2 -15 6 -36 9 -46 3 -10 8 -33
10 -51 3 -19 7 -45 10 -59 20 -98 27 -470 12 -590 -4 -30 -10 -75 -13 -100 -5
-37 -22 -129 -39 -210 -34 -159 -129 -408 -222 -580 -146 -271 -395 -573 -603
-730 -18 -14 -39 -31 -46 -38 -7 -6 -17 -12 -23 -12 -6 0 -11 -4 -11 -8 0 -15
-211 -149 -335 -213 -107 -55 -296 -136 -336 -144 -9 -2 -36 -10 -60 -18 -46
-16 -121 -37 -152 -43 -10 -2 -26 -5 -35 -8 -9 -3 -33 -8 -52 -11 -19 -3 -57
-10 -85 -15 -89 -17 -196 -24 -385 -24 -186 -1 -247 4 -400 30 -25 4 -49 8
-55 9 -5 1 -23 5 -40 9 -16 4 -55 14 -85 21 -114 29 -175 47 -202 61 -15 8
-28 12 -28 10 0 -7 -124 46 -240 102 -134 64 -329 186 -427 267 -7 6 -18 15
-25 20 -178 138 -357 336 -513 568 -58 88 -85 120 -113 133 -85 41 -182 5
-217 -80 -22 -52 -18 -87 15 -152 36 -67 172 -264 216 -310 5 -6 26 -31 45
-54 53 -65 196 -209 279 -280 41 -36 77 -67 80 -70 11 -11 158 -119 200 -147
288 -191 660 -347 970 -407 98 -19 127 -24 140 -24 8 -1 29 -3 45 -6 98 -16
162 -20 360 -20 121 0 240 3 265 6 25 4 72 10 105 13 33 4 67 8 75 10 8 3 31
7 50 10 19 3 55 11 80 16 25 6 56 13 70 15 14 3 36 9 50 14 14 5 52 16 85 25
161 43 418 155 595 259 253 148 485 342 680 566 36 41 68 77 71 80 19 17 149
205 202 292 58 96 139 252 186 359 44 102 134 382 145 454 2 11 9 47 15 80 6
33 14 74 17 90 24 129 32 260 29 460 -2 121 -6 238 -9 260 -3 22 -8 60 -12 85
-4 37 -36 204 -48 260 -26 110 -99 334 -136 415 -67 147 -112 236 -158 315
-54 93 -146 234 -167 256 -5 6 -21 26 -35 44 -27 37 -61 79 -100 124 -50 58
-216 223 -280 276 -36 30 -67 57 -70 60 -13 14 -162 121 -215 155 -33 21 -72
46 -86 56 -113 77 -519 255 -649 284 -8 2 -44 11 -80 20 -78 20 -90 23 -155
35 -27 5 -59 11 -70 13 -11 3 -47 8 -80 12 -32 4 -68 9 -80 12 -24 6 -470 14
-476 9z"/>
<path d="M2577 4674 c-1 -1 -33 -5 -72 -9 -38 -4 -72 -8 -75 -10 -3 -1 -27 -6
-55 -9 -90 -12 -345 -86 -369 -108 -6 -4 -20 -8 -33 -8 -13 0 -23 -4 -23 -10
0 -5 -4 -10 -9 -10 -11 0 -145 -63 -176 -83 -11 -6 -46 -29 -78 -49 -32 -21
-61 -38 -63 -38 -3 0 -10 -5 -17 -10 -23 -20 -56 -45 -83 -65 -83 -61 -219
-194 -305 -300 -56 -69 -159 -210 -159 -219 0 -1 -20 -38 -45 -82 l-45 -79
-354 0 -353 0 -40 -27 c-104 -69 -95 -217 18 -279 18 -10 93 -13 309 -15 157
-1 289 -2 294 -3 4 0 5 -9 1 -18 -15 -37 -40 -156 -50 -242 -3 -25 -8 -47 -11
-50 -3 -3 -150 -6 -327 -6 -335 -1 -339 -2 -388 -45 -47 -42 -62 -126 -33
-183 19 -36 29 -47 68 -72 27 -18 52 -19 347 -20 175 0 320 -2 322 -5 3 -3 8
-41 12 -84 4 -43 9 -88 11 -100 3 -12 7 -39 10 -61 4 -22 15 -73 25 -114 11
-41 19 -77 19 -80 0 -3 -129 -6 -287 -6 -258 -1 -292 -3 -326 -19 -50 -24 -79
-68 -85 -126 -5 -60 25 -121 77 -153 35 -21 44 -21 393 -22 l358 0 27 -50 c31
-60 123 -208 133 -215 3 -3 18 -21 31 -42 31 -45 145 -173 218 -243 130 -124
285 -232 464 -324 64 -33 117 -57 117 -54 0 3 6 1 13 -5 14 -11 202 -75 267
-90 83 -20 105 -24 125 -27 11 -2 36 -6 55 -10 105 -19 374 -27 481 -14 35 5
87 11 114 14 28 3 57 8 65 10 8 2 29 7 46 10 99 16 298 84 433 147 124 58 337
193 349 220 2 5 8 8 14 8 5 0 15 6 22 12 7 7 41 38 75 68 35 30 71 70 80 90
54 110 -61 232 -175 185 -17 -7 -53 -33 -80 -58 -27 -25 -83 -71 -124 -101
-41 -31 -80 -59 -86 -63 -5 -4 -19 -14 -30 -20 -29 -19 -246 -127 -279 -139
-95 -36 -176 -60 -235 -71 -14 -2 -44 -8 -67 -14 -105 -23 -404 -33 -508 -16
-22 3 -58 9 -80 12 -125 20 -315 81 -439 141 -83 41 -220 122 -244 144 -10 9
-25 21 -33 26 -69 39 -248 216 -327 323 -31 42 -59 78 -62 81 -9 9 -30 49 -30
57 0 5 435 8 968 9 1076 0 1029 -2 1150 68 69 41 124 91 171 156 30 41 63 106
58 114 -1 1 3 9 9 17 7 8 15 28 18 44 3 17 9 41 12 55 11 50 6 167 -10 228
-32 126 -109 240 -214 318 -13 9 -11 18 11 65 21 45 42 144 39 184 -20 241
-136 386 -364 456 l-73 23 -892 0 c-555 1 -893 5 -893 10 0 23 122 187 205
275 49 51 155 148 222 201 50 40 187 121 278 165 98 47 232 98 245 93 3 -1 14
3 25 9 11 6 37 14 59 17 21 4 41 8 45 10 7 5 62 14 136 24 63 8 363 7 432 -2
228 -28 513 -136 713 -271 69 -47 187 -139 210 -165 58 -65 153 -67 216 -5 30
29 40 113 19 155 -20 39 -194 187 -282 241 -21 12 -40 26 -43 29 -6 7 -88 56
-140 83 -29 15 -122 57 -215 97 -40 17 -211 68 -280 83 -67 15 -110 22 -220
34 -49 5 -343 12 -348 7z m503 -1423 c88 -36 125 -89 115 -168 -6 -55 -26 -86
-73 -114 l-37 -23 -995 -1 c-547 -1 -1001 1 -1007 3 -15 5 -12 30 12 142 14
66 39 153 50 169 2 4 430 6 952 6 791 0 954 -3 983 -14z m153 -633 c37 -9 97
-65 122 -115 56 -110 22 -229 -87 -301 l-41 -27 -1026 0 c-564 -1 -1033 1
-1042 3 -16 4 -60 142 -75 236 -3 21 -8 48 -10 60 -3 11 -7 50 -10 86 l-6 65
1079 -1 c593 -1 1086 -4 1096 -6z"/>
</g>
</svg>
